<svg xmlns="http://www.w3.org/2000/svg" width="252.245" height="63" viewBox="0 0 252.245 63">
  <g id="Group_14" data-name="Group 14" transform="translate(748 -2911)">
    <rect id="Rectangle_7" data-name="Rectangle 7" width="120" height="63" rx="13" transform="translate(-748 2911)" fill="#ffc857"/>
    <path id="Path_44" data-name="Path 44" d="M138.71-37.95V0H126.83V-23.76q0-1.265.082-2.475a15.735,15.735,0,0,1,.358-2.42l-8.745,1.7-1.375-7.315,9.68-3.685Zm21.12-.66a31.159,31.159,0,0,1,7.37.77,9.055,9.055,0,0,1,4.9,2.833,8.765,8.765,0,0,1,1.76,5.858,15.265,15.265,0,0,1-.385,3.575,10.022,10.022,0,0,1-1.622,3.355,34.7,34.7,0,0,1-3.768,4.29l-8.965,8.47a12.331,12.331,0,0,1,2.475-.495,19.843,19.843,0,0,1,2.585-.055h10.56V0H145.31V-5.94a8.145,8.145,0,0,1,.385-2.585,6.709,6.709,0,0,1,1.265-2.2l7.92-7.755a58.426,58.426,0,0,0,4.923-5.472q1.842-2.392,1.842-3.657a.856.856,0,0,0-.33-.77,2.449,2.449,0,0,0-1.045-.3,18.3,18.3,0,0,0-1.98-.083h-3.795q-1.76,0-3.768.028t-4.7.082L145.64-37.4q2.86-.55,5.253-.8t4.592-.33Q157.685-38.61,159.83-38.61ZM193-38.72a30.332,30.332,0,0,1,7.783.8A6.921,6.921,0,0,1,204.93-35.2a9.648,9.648,0,0,1,1.265,5.335,20.34,20.34,0,0,1-.495,4.813,6.031,6.031,0,0,1-1.842,3.19,7.55,7.55,0,0,1-3.933,1.568v.22q4.125.605,5.665,2.833t1.6,6.682a13.238,13.238,0,0,1-1.32,6.573,7.963,7.963,0,0,1-4.482,3.63A25.07,25.07,0,0,1,193.05.77q-3.52,0-7.177-.3T178.86-.275l.33-8.36q2.585.11,4.318.165t3.19.083q1.457.028,3.052.028a18.877,18.877,0,0,0,3.493-.248,2.354,2.354,0,0,0,1.705-1.073,5.3,5.3,0,0,0,.467-2.53,6.427,6.427,0,0,0-.33-2.31,2.078,2.078,0,0,0-1.238-1.182,7.03,7.03,0,0,0-2.667-.3l-7.315.11v-7.26h7.315a8.172,8.172,0,0,0,2.145-.22,2.475,2.475,0,0,0,1.155-.633,2.014,2.014,0,0,0,.495-1.072,9.086,9.086,0,0,0,.11-1.485,4.133,4.133,0,0,0-.357-1.925,1.923,1.923,0,0,0-1.265-.908,10.517,10.517,0,0,0-2.613-.247H180.015l-.33-8.03q3.355-.55,6.71-.8T193-38.72Zm37.95.77-7.7,21.285a1.026,1.026,0,0,0,.055.99,1.007,1.007,0,0,0,.88.385h21.065V-8.8L241.01-7.7H214.83a4.5,4.5,0,0,1-2.668-.8,3.981,3.981,0,0,1-1.54-2.118,4.082,4.082,0,0,1,.137-2.75l9.185-24.585Zm9.955,7.48V0H230.065V-24.64l1.925-5.83Z" transform="translate(-741 2963)" fill="#4b3f72"/>
    <path id="Path_45" data-name="Path 45" d="M19.25-38.39a33.251,33.251,0,0,1,8.415.853,7.375,7.375,0,0,1,4.51,3,11.2,11.2,0,0,1,1.375,6.05,10.171,10.171,0,0,1-1.6,6.188q-1.6,2.117-5.335,2.448v.33q4.565.385,6.38,2.942A12.145,12.145,0,0,1,34.815-9.46a10.692,10.692,0,0,1-1.458,6.05,7.7,7.7,0,0,1-4.483,3,29.521,29.521,0,0,1-7.81.853q-4.07,0-7.177-.028T8.167.275Q5.555.165,2.86,0l.88-7.81q1.43.055,5.555.11t9.625.055a7.529,7.529,0,0,0,2.53-.33A1.9,1.9,0,0,0,22.632-9.24a8.973,8.973,0,0,0,.3-2.64,8.494,8.494,0,0,0-.33-2.695,1.985,1.985,0,0,0-1.183-1.265,7.492,7.492,0,0,0-2.557-.33H3.685v-6.985h15.07a6.359,6.359,0,0,0,2.118-.275A1.651,1.651,0,0,0,21.89-24.5a7.337,7.337,0,0,0,.275-2.283,6.8,6.8,0,0,0-.275-2.227,1.648,1.648,0,0,0-1.045-1.018,6.839,6.839,0,0,0-2.2-.275q-3.465,0-6.05-.028t-4.675,0q-2.09.028-4.18.193l-.88-7.81q2.475-.22,4.84-.3t5.143-.11Q15.62-38.39,19.25-38.39Zm-4.73.44V0H2.86V-37.95Zm34.1-.22q3.3,0,6.792.028t6.848.165q3.355.138,6.105.523l-.55,8.415H53.9a2.361,2.361,0,0,0-1.65.55,1.843,1.843,0,0,0-.6,1.43v16.17a1.843,1.843,0,0,0,.6,1.43,2.361,2.361,0,0,0,1.65.55H67.815l.55,8.415q-2.75.33-6.105.495T55.412.193Q51.92.22,48.62.22a8.894,8.894,0,0,1-6.407-2.393,8.244,8.244,0,0,1-2.5-6.242v-21.12a8.244,8.244,0,0,1,2.5-6.243A8.894,8.894,0,0,1,48.62-38.17Zm-7.92,14.8H65.835v7.92H40.7ZM93.83-37.95V0H81.9V-37.95Zm10.615,0v8.91H71.28v-8.91Z" transform="translate(-741 2963)" fill="#1f2041"/>
  </g>
</svg>
